<?xml version="1.0" encoding="UTF-8" standalone="no"?>
<!DOCTYPE svg PUBLIC "-//W3C//DTD SVG 1.1//EN" "http://www.w3.org/Graphics/SVG/1.1/DTD/svg11.dtd">
<svg width="100%" height="100%" viewBox="0 0 500 150" version="1.1" xmlns="http://www.w3.org/2000/svg" xmlns:xlink="http://www.w3.org/1999/xlink" xml:space="preserve" xmlns:serif="http://www.serif.com/" style="fill-rule:evenodd;clip-rule:evenodd;stroke-linejoin:round;stroke-miterlimit:2;">
    <g id="Artboard1" transform="matrix(1,0,0,1,5,5)">
        <rect x="-5" y="-5" width="500" height="150" style="fill:none;"/>
        <path d="M184.6,61.93C184.6,47.37 180.448,39.89 172.14,39.48C168.836,39.324 165.609,39.85 162.471,41.069C159.966,41.966 158.28,42.853 157.393,43.749L157.393,78.509C162.705,81.843 167.423,83.392 171.533,83.149C180.237,82.574 184.593,75.507 184.593,61.929L184.6,61.93ZM194.84,62.534C194.84,69.932 193.105,76.074 189.616,80.954C185.727,86.481 180.337,89.327 173.446,89.483C168.251,89.649 162.896,88.021 157.396,84.609L157.396,116.199L148.487,113.021L148.487,42.901C149.949,41.108 151.83,39.567 154.111,38.261C159.413,35.171 165.861,33.582 173.441,33.504L173.568,33.631C180.498,33.543 185.838,36.389 189.588,42.16C193.087,47.453 194.842,54.24 194.842,62.53L194.84,62.534Z" style="fill:rgb(100,100,100);fill-rule:nonzero;"/>
        <path d="M249.3,83.27C249.3,93.193 248.306,100.06 246.317,103.89C244.319,107.711 240.517,110.762 234.907,113.033C230.355,114.826 225.433,115.801 220.147,115.967L218.675,110.353C224.046,109.622 227.828,108.891 230.025,108.16C234.343,106.698 237.306,104.456 238.934,101.454C240.24,99.007 240.883,94.339 240.883,87.424L240.883,85.104C234.791,87.872 228.403,89.247 221.733,89.247C217.347,89.247 213.477,87.873 210.143,85.104C206.4,82.092 204.529,78.271 204.529,73.644L204.529,36.564L213.438,33.513L213.438,70.833C213.438,74.82 214.725,77.89 217.298,80.044C219.871,82.198 223.205,83.231 227.289,83.153C231.373,83.065 235.749,81.486 240.399,78.396L240.399,34.856L249.308,34.856L249.308,83.266L249.3,83.27Z" style="fill:rgb(100,100,100);fill-rule:nonzero;"/>
        <path d="M284.1,89C283.038,89.088 282.063,89.127 281.166,89.127C276.127,89.127 272.199,87.928 269.396,85.521C266.599,83.113 265.195,79.79 265.195,75.55L265.195,40.46L259.093,40.46L259.093,34.855L265.195,34.855L265.195,19.975L274.094,16.807L274.094,34.857L284.104,34.857L284.104,40.462L274.094,40.462L274.094,75.312C274.094,78.655 274.991,81.024 276.784,82.408C278.324,83.548 280.771,84.201 284.104,84.367L284.104,89.007L284.1,89Z" style="fill:rgb(100,100,100);fill-rule:nonzero;"/>
        <path d="M338,88.27L329.091,88.27L329.091,53.88C329.091,50.381 328.272,47.369 326.644,44.854C324.763,42.008 322.151,40.585 318.798,40.585C314.714,40.585 309.606,42.739 303.478,47.047L303.478,88.267L294.569,88.267L294.569,6.067L303.478,3.26L303.478,40.7C309.17,36.557 315.388,34.481 322.148,34.481C326.866,34.481 330.686,36.07 333.608,39.238C336.542,42.406 338.004,46.353 338.004,51.068L338.004,88.258L338,88.27Z" style="fill:rgb(100,100,100);fill-rule:nonzero;"/>
        <path d="M385.4,60.53C385.4,54.935 384.338,50.32 382.222,46.66C379.707,42.206 375.799,39.857 370.512,39.613C360.745,40.178 355.872,47.177 355.872,60.593C355.872,66.743 356.886,71.883 358.933,76.003C361.545,81.257 365.464,83.849 370.693,83.762C380.499,83.684 385.403,75.945 385.403,60.532L385.4,60.53ZM395.157,60.588C395.157,68.551 393.12,75.178 389.055,80.468C384.581,86.394 378.405,89.367 370.515,89.367C362.698,89.367 356.605,86.394 352.205,80.468C348.218,75.175 346.23,68.548 346.23,60.588C346.23,53.102 348.384,46.808 352.692,41.678C357.244,36.239 363.232,33.51 370.622,33.51C378.02,33.51 384.042,36.239 388.682,41.678C392.99,46.805 395.144,53.098 395.144,60.588L395.157,60.588Z" style="fill:rgb(100,100,100);fill-rule:nonzero;"/>
        <path d="M446.2,88.27L437.291,88.27L437.291,51.93C437.291,47.943 436.092,44.834 433.694,42.592C431.296,40.36 428.099,39.278 424.113,39.366C419.883,39.444 415.857,40.828 412.033,43.509L412.033,88.269L403.124,88.269L403.124,42.409C408.251,38.676 412.969,36.239 417.274,35.099C421.339,34.037 424.925,33.51 428.014,33.51C430.129,33.51 432.118,33.715 433.989,34.124C437.488,34.933 440.334,36.434 442.527,38.637C444.974,41.074 446.192,43.998 446.192,47.419L446.192,88.269L446.2,88.27Z" style="fill:rgb(100,100,100);fill-rule:nonzero;"/>
        <path d="M60.51,6.398C55.926,6.419 51.549,6.81 47.7,7.492C36.35,9.497 34.29,13.692 34.29,21.432L34.29,31.652L61.1,31.652L61.1,35.058L24.23,35.058C16.438,35.058 9.61,39.742 7.48,48.648C5.018,58.858 4.909,65.238 7.48,75.898C9.386,83.836 13.938,89.488 21.73,89.488L30.949,89.488L30.949,77.238C30.949,68.388 38.606,60.578 47.699,60.578L74.479,60.578C81.934,60.578 87.889,54.44 87.889,46.958L87.889,21.428C87.889,14.162 81.759,8.708 74.479,7.488C69.873,6.721 65.094,6.373 60.509,6.394L60.51,6.398ZM46.01,14.617C48.78,14.617 51.041,16.916 51.041,19.742C51.041,22.558 48.779,24.836 46.01,24.836C43.231,24.836 40.979,22.559 40.979,19.742C40.979,16.916 43.231,14.617 46.01,14.617Z" style="fill:url(#_Linear1);fill-rule:nonzero;"/>
        <path d="M91.23,35.05L91.23,46.96C91.23,56.191 83.404,63.96 74.48,63.96L47.7,63.96C40.364,63.96 34.29,70.238 34.29,77.58L34.29,103.11C34.29,110.376 40.609,114.65 47.7,116.73C56.187,119.226 64.33,119.677 74.48,116.73C81.23,114.776 87.89,110.842 87.89,103.11L87.89,92.89L61.11,92.89L61.11,89.484L101.3,89.484C109.092,89.484 112,84.049 114.71,75.894C117.509,67.495 117.39,59.414 114.71,48.644C112.784,40.887 109.106,35.054 101.3,35.054L91.24,35.054L91.23,35.05ZM76.17,99.71C78.949,99.71 81.201,101.987 81.201,104.804C81.201,107.63 78.949,109.929 76.17,109.929C73.4,109.929 71.139,107.63 71.139,104.804C71.139,101.988 73.401,99.71 76.17,99.71Z" style="fill:url(#_Linear2);fill-rule:nonzero;"/>
        <path d="M463.6,26.91L465.162,26.91L465.162,17.114L468.862,17.114L468.862,15.946L459.9,15.946L459.9,17.114L463.6,17.114L463.6,26.91M470.247,26.91L471.581,26.91L471.581,17.963L474.477,26.909L475.963,26.909L478.981,17.993L478.981,26.91L480.437,26.91L480.437,15.95L478.511,15.95L475.213,25.343L472.4,15.95L470.247,15.95L470.247,26.91" style="fill:rgb(100,100,100);fill-rule:nonzero;"/>
        <g transform="matrix(0.7341,0,0,0.8095,16.25,27.01)">
            <path d="M110.5,132.3C110.5,137.022 88.403,140.907 61.55,140.907C34.697,140.907 12.6,137.022 12.6,132.3C12.6,127.578 34.697,123.693 61.55,123.693C88.403,123.693 110.5,127.578 110.5,132.3Z" style="fill:url(#_Radial3);fill-rule:nonzero;"/>
        </g>
    </g>
    <defs>
        <linearGradient id="_Linear1" x1="0" y1="0" x2="1" y2="0" gradientUnits="userSpaceOnUse" gradientTransform="matrix(61.3406,53.2784,-53.2784,61.3406,5.59062,6.3958)"><stop offset="0" style="stop-color:rgb(90,159,212);stop-opacity:1"/><stop offset="1" style="stop-color:rgb(48,105,152);stop-opacity:1"/></linearGradient>
        <linearGradient id="_Linear2" x1="0" y1="0" x2="1" y2="0" gradientUnits="userSpaceOnUse" gradientTransform="matrix(-21.9375,-31.2968,31.2968,-21.9375,75.5375,103.978)"><stop offset="0" style="stop-color:rgb(255,212,59);stop-opacity:1"/><stop offset="1" style="stop-color:rgb(255,232,115);stop-opacity:1"/></linearGradient>
        <radialGradient id="_Radial3" cx="0" cy="0" r="1" gradientUnits="userSpaceOnUse" gradientTransform="matrix(6.92023e-07,-8.60746,41.7305,1.36023e-05,61.6151,132.266)"><stop offset="0" style="stop-color:rgb(184,184,184);stop-opacity:0.22"/><stop offset="1" style="stop-color:rgb(127,127,127);stop-opacity:0"/></radialGradient>
    </defs>
</svg>
