<?xml version="1.0" encoding="UTF-8" standalone="no"?>
<!DOCTYPE svg PUBLIC "-//W3C//DTD SVG 1.1//EN" "http://www.w3.org/Graphics/SVG/1.1/DTD/svg11.dtd">
<svg width="100%" height="100%" viewBox="0 0 1221 950" version="1.1" xmlns="http://www.w3.org/2000/svg" xmlns:xlink="http://www.w3.org/1999/xlink" xml:space="preserve" xmlns:serif="http://www.serif.com/" style="fill-rule:evenodd;clip-rule:evenodd;stroke-linejoin:round;stroke-miterlimit:2;">
    <g transform="matrix(4.16667,0,0,4.16667,0,0)">
        <path d="M0.5,0.789L292.035,0.789L292.035,180.28L292.535,180.28L292.535,0.289L0,0.289L0,180.28L0.5,180.28L0.5,0.789Z" style="fill:rgb(35,31,32);fill-rule:nonzero;"/>
        <path d="M292.535,228L292.535,180.28L292.035,180.28L292.035,227.5L0.5,227.5L0.5,180.28L0,180.28L0,228L292.535,228Z" style="fill:rgb(35,31,32);fill-rule:nonzero;"/>
        <path d="M117.702,209.588L117.702,198.75L116.702,198.75L116.702,208.588L17.652,208.588L17.652,198.75L16.652,198.75L16.652,209.588L117.702,209.588Z" style="fill:rgb(0,99,166);fill-rule:nonzero;"/>
        <path d="M182.674,50.307C185.803,47.123 190.799,46.629 195.41,46.958L195.631,48.001C195.904,50.857 192.281,49.154 190.854,50.143C189.041,50.912 187.176,51.68 185.691,52.888C185.199,52.998 184.981,52.833 184.76,52.449C184.32,51.461 181.629,51.846 182.674,50.307ZM196.18,51.241C196.125,52.12 194.973,52.12 194.752,53.053C194.533,54.481 195.41,55.744 196.016,56.951C194.752,56.842 193.27,55.194 191.787,56.018C190.799,56.786 190.635,57.994 190.471,59.148C190.69,60.136 191.02,61.454 191.897,61.947C193.764,62.442 195.356,60.959 196.783,60.08C196.893,62.333 195.193,63.87 193.6,65.077C191.512,66.395 188.328,66.23 186.352,64.968C184.649,63.87 183.223,62.222 182.891,60.08C184.596,60.849 186.188,62.662 188.274,61.947C189.428,61.234 189.535,59.751 189.481,58.378C189.152,57.335 189.041,56.347 187.887,55.798C186.188,55.634 184.649,56.786 183.277,57.171C184.047,56.127 184.375,54.37 185.967,54.37C188.768,52.229 192.172,50.692 195.961,50.912L196.18,51.241ZM211.664,47.013C212.377,47.398 212.377,48.111 212.104,48.77L210.676,49.1C206.613,48.99 202.768,49.483 198.869,49.1L198.76,47.507C202.658,45.969 207.545,46.464 211.664,47.013ZM211.279,53.821C211.389,55.029 212.213,55.853 212.486,57.006C211.225,56.347 209.688,55.359 208.26,56.018C207.106,56.951 206.887,58.488 207.16,59.751C207.272,60.849 208.096,61.728 208.918,62.113C210.512,62.058 211.883,60.959 213.035,60.08C212.981,62.496 211.445,64.199 209.357,65.351C206.887,66.395 203.758,66.011 201.506,64.473C200.133,63.596 199.09,61.893 199.09,60.136C200.463,60.849 202.494,62.826 204.416,61.673C205.623,60.301 205.623,58.104 204.801,56.567C204.416,55.744 203.207,55.578 202.385,55.963C201.451,56.402 200.516,56.732 199.639,57.116C200.406,55.798 201.397,54.096 200.684,52.504C200.299,51.735 198.377,51.9 199.145,50.638C203.481,50.362 207.984,50.362 212.432,50.252C213.75,52.065 210.455,51.846 211.279,53.821ZM219.68,55.744C218.307,55.634 217.045,56.567 215.836,57.006C216.441,55.469 217.813,53.876 216.715,52.12C216.166,51.735 215.342,51.515 215.836,50.527L216.057,50.252L229.234,50.527C229.234,50.746 229.453,50.967 229.399,51.241C228.684,51.846 227.695,51.9 227.477,52.888C227.147,54.591 228.19,55.634 228.629,57.006C227.147,56.567 225.555,55.194 224.018,56.018C223.029,57.116 222.699,58.708 223.139,60.136C223.357,61.069 224.018,61.947 224.949,62.113C226.652,61.673 228.025,60.959 229.399,59.916C229.399,62.442 227.477,64.419 225.334,65.351C222.809,66.34 219.295,66.066 217.484,64.254C216.441,63.265 215.342,61.838 215.287,60.136C216.66,60.849 218.473,62.826 220.229,61.673C221.162,60.904 221.217,59.861 221.438,58.763C221.326,57.555 220.996,56.237 219.68,55.744ZM216.275,47.343C217.924,46.574 220.01,46.848 221.768,46.409C224.346,46.244 226.928,46.574 229.399,47.232C229.672,47.782 229.672,48.551 229.453,49.1C225.17,49.264 220.668,49.1 216.441,48.88C215.945,48.495 216.057,47.837 216.275,47.343ZM236.865,56.127C235.326,55.029 233.736,56.402 232.309,57.006C232.746,55.744 234.01,54.206 233.406,52.504C233.022,51.9 232.199,51.954 232.035,51.35C233.022,50.088 235.053,51.075 236.426,51.131C238.897,51.735 240.984,53.492 243.399,54.426L244.936,57.006C243.399,56.567 241.916,55.359 240.215,55.798C239.227,56.402 238.842,57.555 238.897,58.763C239.006,59.696 239.063,60.575 239.5,61.288C240.215,62.277 241.258,62.058 242.191,61.728C243.399,61.344 244.168,60.466 245.32,59.861C245.266,62.113 243.18,64.419 240.984,65.351C238.623,66.45 235.547,65.791 233.625,64.199C232.416,62.991 231.594,61.564 231.594,59.861C232.91,60.904 234.668,62.333 236.535,61.893C237.69,61.069 237.69,59.696 237.742,58.543C237.854,57.61 237.469,56.732 236.865,56.127ZM233.516,46.629C237.854,46.958 242.356,46.794 245.486,49.979C247.024,51.9 243.399,51.296 243.014,52.833C241.149,51.625 239.006,50.527 236.756,49.868L232.746,49.264C233.022,48.495 232.143,46.739 233.516,46.629ZM184.76,72.216L243.565,72.05C244.772,66.944 246.309,62.058 247.518,56.951C248.231,53.876 249,50.472 246.637,48.001C242.412,45.805 237.305,44.378 232.199,45.421C227.807,43.828 222.371,44.871 217.649,45.201L217.484,45.036C218.691,44.268 219.57,43.664 220.283,42.456C221.602,40.534 221.822,37.35 220.777,35.208C219.57,32.902 217.152,31.365 214.684,31.035L215.561,30.376C215.451,28.18 215.508,26.203 215.672,24.062L219.461,24.062L219.461,21.701L215.561,21.482L215.342,17.2L212.818,17.2C212.432,18.408 213.035,20.109 212.598,21.482L208.697,21.701L208.697,24.062L212.598,24.062C212.981,26.039 212.762,28.345 212.818,30.486L213.584,31.035C212.871,31.365 211.992,31.365 211.225,31.749C208.918,32.902 207.106,35.044 206.887,37.734C206.613,40.864 208.26,43.664 210.84,45.091C206.117,44.817 200.627,43.993 196.016,45.476C190.908,44.817 185.748,45.641 181.684,48.221C180.092,49.759 179.709,52.12 180.147,54.37C181.629,60.355 183.223,66.34 184.76,72.216Z" style="fill:rgb(35,31,32);fill-rule:nonzero;"/>
        <path d="M251.195,101.754C249.604,98.789 248.066,95.825 245.76,93.19C236.262,81.714 219.9,75.015 204.197,79.518C188.107,84.075 175.535,98.953 173.998,115.92L173.941,155.619L183.277,155.619L183.277,121.465C183.387,112.408 186.57,104.83 192.227,98.295C199.42,89.676 212.268,86.546 223.524,89.95C235.383,93.41 244.277,104.939 245.705,117.072L245.871,155.398L255.149,155.398L255.149,123.828C255.643,115.756 254.162,108.453 251.195,101.754Z" style="fill:rgb(237,28,36);fill-rule:nonzero;"/>
        <path d="M205.623,97.746C194.973,102.687 189.096,114.053 189.316,126.353C189.481,138.652 194.588,151.389 206.996,155.783C213.805,157.978 221.547,156.275 226.928,152.215L226.928,138.762C222.809,143.812 216.936,148.041 210.07,145.57C202.99,143.264 199.42,136.18 198.484,129.155C197.277,120.807 200.463,112.789 207.326,108.564C211.609,106.092 218.086,106.586 222.426,108.728C227.695,111.803 229.014,117.348 229.563,122.949L229.783,155.398L239.063,155.398L239.063,125.529C239.391,119.105 238.291,113.23 235.383,108.178C229.783,98.407 216.879,93.629 205.623,97.746Z" style="fill:rgb(35,31,32);fill-rule:nonzero;"/>
        <rect x="19.992" y="153.843" width="94.437" height="16.944" style="fill:rgb(117,156,202);fill-rule:nonzero;"/>
        <path d="M19.992,71.889L114.429,71.889L114.429,153.915L78.052,153.915C71.354,154.629 67.139,158.706 61.988,158.236C59.067,157.969 56.913,157.293 54.789,157.299C45.421,157.331 42.842,162.284 29.191,162.284C25.549,162.284 22.743,160.328 19.992,157.242L19.992,71.889Z" style="fill:rgb(0,99,166);fill-rule:nonzero;"/>
        <path d="M94.813,82.424C94.813,82.424 95.106,82.703 95.72,83.706C96.307,84.668 98.066,85.271 98.497,84.029C98.723,83.386 98.23,82.648 97.594,82.381C95.802,81.629 94.813,82.424 94.813,82.424Z" style="fill:white;fill-rule:nonzero;"/>
        <path d="M19.539,149.45C20.472,146.085 23.903,143.709 28.397,143.709C39.449,143.709 46.049,151.492 56.436,151.602C59.197,151.632 60.991,150.924 60.991,149.706C60.991,148.929 60.444,147.925 59.09,145.908C53.595,138.343 52.739,123.818 57.665,113.184C61.234,105.473 66.705,101.136 71.137,98.839C73.786,97.465 76.633,95.689 77.806,93.558C78.98,91.428 78.728,88.946 78.955,86.434C79.614,79.171 84.48,75.022 89.858,75.579C92.233,75.824 94.853,76.343 96.881,77.031C97.783,77.334 98.647,77.778 99.501,78.274C102.017,79.731 105.399,82.298 108.042,84.676C108.83,85.381 109.123,86.138 108.881,87.191C108.427,89.16 107.588,91.018 106.942,92.2C106.601,92.828 106.111,93.08 105.42,93.288C104.706,93.502 101.251,93.863 101.181,93.479C101.17,92.533 104.168,92.377 104.883,92.121C105.364,91.935 105.63,91.654 105.843,91.11C106.288,90.093 106.902,88.244 107.204,86.647C107.406,85.902 107.204,85.377 106.63,84.94C103.565,82.619 101.605,81.312 99.303,80.078C98.547,79.672 97.71,79.309 96.802,79.06C94.864,78.53 92.401,78.096 90.382,77.998C84.991,77.739 81.517,82.055 80.488,87.865C80.146,89.795 80.138,92.29 79.324,94.158C77.826,98.289 76.181,98.954 72.926,101.443C69.514,104.054 63.774,109.378 60.53,116.73C57.478,123.64 55.035,136.127 59.799,144.892C62.018,148.972 63.859,149.837 63.842,150.929C63.721,152.845 59.173,153.013 56.458,153.013C47.871,153.013 40.582,146.258 28.966,145.985C23.415,145.854 21.886,148.888 21.108,150.399C20.105,152.347 19.517,156.058 20.994,158.21C22.169,159.923 24.254,160.646 29.117,160.646C42.441,160.646 43.088,156.971 54.476,156.971C56.595,156.971 57.892,157.497 61.202,157.493C67.194,157.483 71.865,152.456 80.688,153.148C83.313,153.355 85.963,155.624 87.361,158.07C84.832,156.535 83.198,156.464 80.593,156.014C71.787,154.493 69.169,163.231 59.854,159.221C57.138,158.052 55.344,157.731 53.794,157.769C46.284,157.959 40.277,162.635 29.685,162.685C23.815,162.712 20.673,160.634 19.539,157.974L19.539,149.45Z" style="fill:white;fill-rule:nonzero;"/>
        <path d="M104.247,92.995C103.579,93.039 103.331,93.021 103.313,93.158C103.109,94.707 102.858,96.838 101.888,99.242C101.776,99.654 101.658,99.833 101.862,100.607C102.878,99.739 104.801,94.763 104.989,93.019C104.998,92.963 104.821,92.958 104.247,92.995Z" style="fill:white;fill-rule:nonzero;"/>
        <path d="M90.337,84.443C90.337,84.443 89.894,84.676 89.231,84.264C88.747,83.965 88.616,83.69 88.601,83.24C88.59,82.867 89.13,82.641 89.556,82.376C89.975,82.051 90.052,81.54 89.318,81.47C87.357,81.248 86.075,82.119 85.999,83.296C85.937,84.229 87.331,85.31 88.775,85.294C90.025,85.278 90.337,84.443 90.337,84.443Z" style="fill:white;fill-rule:nonzero;"/>
        <path d="M104.637,93.09C104.129,95.768 102.191,96.931 98.355,97.276C97.186,97.38 97.281,96.885 98.518,96.611C100.613,96.146 102.725,95.17 103.125,93.197C103.252,92.571 104.782,92.334 104.637,93.09Z" style="fill:white;fill-rule:nonzero;"/>
        <path d="M43.85,29.007L33.996,29.007L28.856,36.457L28.996,32.182L28.996,20.414L20.053,20.414C20.053,20.414 20.403,20.787 20.403,21.927L20.403,51.445L29.079,51.445C29.079,51.445 29.049,48.262 29.049,46.789C29.049,45.62 30.665,43.837 30.665,43.837L34.859,51.445L44.336,51.445L36.13,38.205L43.85,29.007Z" style="fill:rgb(0,99,166);fill-rule:nonzero;"/>
        <path d="M85.904,29.007L83.631,38.03L82.899,41.459L82.096,37.986L79.289,29.007L71.817,29.007L68.982,38.035L68.115,41.547L67.347,38.002L64.892,29.007L58.596,29.007L58.596,35.369L64.001,51.445L71.511,51.445L74.85,40.734L75.235,39.05L75.62,40.75L79.074,51.445L86.376,51.445L93.927,29.007L85.904,29.007Z" style="fill:rgb(0,99,166);fill-rule:nonzero;"/>
        <path d="M105.382,45.822C105.382,45.855 105.22,45.911 105.128,45.941C104.347,46.194 103.426,46.194 103.041,46.194C102.657,46.194 101.845,46.106 101.345,45.765C101.104,45.6 100.94,45.402 100.809,45.109C100.673,44.809 100.605,44.497 100.605,44.114C100.605,43.093 101.05,42.456 102.069,42.053C102.952,41.704 103.95,41.577 105.382,41.538L105.382,45.822ZM113.976,49.623L113.976,37.55C113.976,34.545 113.093,31.765 111.478,30.495C110.627,29.815 109.486,29.32 108.149,29.023C106.855,28.736 105.446,28.59 103.994,28.59C100.99,28.59 98.518,28.949 97.68,29.087L95.967,34.164C96.685,34.078 99.155,33.803 101.146,33.803C102.827,33.803 103.844,33.973 104.734,34.634C105.624,35.296 105.416,37.289 105.416,37.289C103.848,37.302 102.414,37.378 101.149,37.513C100.313,37.601 99.475,37.736 98.661,37.913C97.838,38.091 96.908,38.384 95.897,38.784C94.83,39.205 93.889,39.912 93.101,40.885C92.298,41.874 91.891,43.06 91.891,44.409C91.891,46.51 92.626,48.26 94.077,49.611C95.552,50.958 97.509,51.642 99.896,51.642C102.197,51.642 104.201,51.092 105.868,50.005C105.99,50.619 106.273,50.97 106.721,51.249C107.071,51.453 107.671,51.445 108.664,51.445L114.354,51.445C114.354,51.445 113.976,51.098 113.976,49.623Z" style="fill:rgb(0,99,166);fill-rule:nonzero;"/>
        <path d="M46.183,31.984L46.183,51.446L55.254,51.446L55.254,29.007L48.758,29.007L46.183,31.984Z" style="fill:rgb(0,99,166);fill-rule:nonzero;"/>
        <path d="M51.16,20.291C48.73,20.291 46.763,21.988 46.763,24.071C46.763,26.154 48.73,27.851 51.16,27.851C53.591,27.851 55.558,26.154 55.558,24.071C55.558,21.988 53.591,20.291 51.16,20.291Z" style="fill:rgb(0,99,166);fill-rule:nonzero;"/>
        <path d="M17.652,17.883L116.702,17.883L116.702,198.75L117.702,198.75L117.702,16.883L16.652,16.883L16.652,198.75L17.652,198.75L17.652,17.883Z" style="fill:rgb(0,99,166);fill-rule:nonzero;"/>
        <path d="M178.658,198.536L180.789,198.536L183.323,206.142C183.683,207.206 183.743,207.416 183.818,207.731L183.848,207.731C184.028,207.146 184.073,207.026 184.418,206.006L186.983,198.536L188.874,198.536L188.874,209.276L187.523,209.276L187.523,200.291L187.493,200.291L184.403,209.276L183.128,209.276L180.053,200.142L180.008,200.142L180.008,209.276L178.658,209.276L178.658,198.536Z" style="fill:rgb(35,31,32);fill-rule:nonzero;"/>
        <path d="M192.039,205.706C192.053,205.946 192.113,206.396 192.323,206.802C192.923,207.956 194.408,208.182 195.204,208.182C196.688,208.182 197.874,207.552 197.874,206.351C197.874,205.092 196.793,204.821 194.619,204.296C193.223,203.967 191.108,203.472 191.108,201.326C191.108,199.661 192.488,198.356 194.874,198.356C197.183,198.356 198.833,199.466 198.909,201.581L197.543,201.686C197.468,200.906 197.153,199.631 194.933,199.631C194.003,199.631 192.458,199.901 192.458,201.236C192.458,202.166 193.058,202.512 195.023,202.946C196.988,203.381 199.238,203.892 199.238,206.246C199.238,208.031 197.708,209.456 195.263,209.456C192.683,209.456 191.513,208.467 190.958,207.146C190.718,206.561 190.704,206.111 190.688,205.826L192.039,205.706Z" style="fill:rgb(35,31,32);fill-rule:nonzero;"/>
        <path d="M204.233,204.731L200.093,198.536L201.818,198.536L203.933,201.776C204.488,202.616 204.668,202.946 205.028,203.592C205.463,202.826 206.138,201.791 206.198,201.701L208.283,198.536L209.933,198.536L205.658,204.731L205.658,209.276L204.233,209.276L204.233,204.731Z" style="fill:rgb(35,31,32);fill-rule:nonzero;"/>
        <path d="M212.048,205.706C212.063,205.946 212.123,206.396 212.333,206.802C212.933,207.956 214.417,208.182 215.213,208.182C216.698,208.182 217.883,207.552 217.883,206.351C217.883,205.092 216.803,204.821 214.628,204.296C213.233,203.967 211.118,203.472 211.118,201.326C211.118,199.661 212.498,198.356 214.883,198.356C217.193,198.356 218.843,199.466 218.918,201.581L217.553,201.686C217.478,200.906 217.163,199.631 214.943,199.631C214.013,199.631 212.468,199.901 212.468,201.236C212.468,202.166 213.068,202.512 215.033,202.946C216.998,203.381 219.248,203.892 219.248,206.246C219.248,208.031 217.718,209.456 215.273,209.456C212.693,209.456 211.523,208.467 210.968,207.146C210.728,206.561 210.713,206.111 210.698,205.826L212.048,205.706Z" style="fill:rgb(35,31,32);fill-rule:nonzero;"/>
        <path d="M228.368,208.376C230.318,208.376 230.513,205.811 230.513,203.981C230.513,202.106 230.318,199.571 228.353,199.571C226.523,199.571 226.223,201.851 226.223,203.981C226.223,205.767 226.403,208.376 228.368,208.376ZM228.368,198.491C231.863,198.491 231.863,202.796 231.863,203.981C231.863,205.137 231.863,209.456 228.368,209.456C224.888,209.456 224.873,205.256 224.873,203.981C224.873,202.826 224.873,198.491 228.368,198.491Z" style="fill:rgb(35,31,32);fill-rule:nonzero;"/>
        <path d="M236.708,208.376C238.658,208.376 238.853,205.811 238.853,203.981C238.853,202.106 238.658,199.571 236.693,199.571C234.863,199.571 234.563,201.851 234.563,203.981C234.563,205.767 234.743,208.376 236.708,208.376ZM236.708,198.491C240.203,198.491 240.203,202.796 240.203,203.981C240.203,205.137 240.203,209.456 236.708,209.456C233.228,209.456 233.212,205.256 233.212,203.981C233.212,202.826 233.212,198.491 236.708,198.491Z" style="fill:rgb(35,31,32);fill-rule:nonzero;"/>
        <path d="M245.752,205.496L245.752,200.651L245.722,200.651L242.392,205.496L245.752,205.496ZM245.752,206.711L241.102,206.711L241.102,205.496L245.993,198.536L247.073,198.536L247.073,205.496L248.528,205.496L248.528,206.711L247.073,206.711L247.073,209.276L245.752,209.276L245.752,206.711Z" style="fill:rgb(35,31,32);fill-rule:nonzero;"/>
        <rect x="27.073" y="178.638" width="3.677" height="17.583" style="fill:rgb(0,99,166);fill-rule:nonzero;"/>
        <path d="M38.617,196.513C34.063,196.513 33.21,193.834 33.405,190.79L37.082,190.79C37.082,192.471 37.156,193.883 39.177,193.883C40.419,193.883 41.028,193.079 41.028,191.886C41.028,188.72 33.624,188.525 33.624,183.289C33.624,180.537 34.94,178.346 39.42,178.346C43,178.346 44.778,179.953 44.534,183.63L40.955,183.63C40.955,182.315 40.736,180.976 39.25,180.976C38.057,180.976 37.35,181.633 37.35,182.851C37.35,186.187 44.754,185.895 44.754,191.423C44.754,195.977 41.417,196.513 38.617,196.513Z" style="fill:rgb(0,99,166);fill-rule:nonzero;"/>
        <path d="M55.617,187.43C55.617,182.924 55.349,180.976 53.28,180.976C51.209,180.976 50.942,182.924 50.942,187.43C50.942,191.935 51.209,193.883 53.28,193.883C55.349,193.883 55.617,191.935 55.617,187.43ZM47.216,187.43C47.216,182.778 47.216,178.346 53.28,178.346C59.344,178.346 59.344,182.778 59.344,187.43C59.344,192.032 59.344,196.513 53.28,196.513C47.216,196.513 47.216,192.032 47.216,187.43Z" style="fill:rgb(0,99,166);fill-rule:nonzero;"/>
        <path d="M71.746,187.308C73.207,187.308 73.28,185.335 73.28,184.288C73.28,183.216 73.231,181.341 71.77,181.341C70.285,181.341 70.285,183.313 70.285,184.36C70.285,185.408 70.285,187.308 71.746,187.308ZM70.256,192.227C70.256,192.665 70.304,193.103 70.5,193.42C70.694,193.736 71.011,193.956 71.522,193.956C73.227,193.956 73.032,192.567 73.032,188.525C72.253,189.305 71.303,189.645 70.207,189.645C67.602,189.645 66.603,187.308 66.603,185.043C66.603,181.706 67.626,179.003 71.449,179.003C76.49,179.003 76.466,183.021 76.466,187.795C76.466,191.983 76.392,196.439 71.425,196.439C68.478,196.439 66.774,195.441 66.846,192.227L70.256,192.227Z" style="fill:rgb(0,99,166);fill-rule:nonzero;"/>
        <path d="M81.625,187.722C81.625,192.86 81.747,193.956 83.11,193.956C84.474,193.956 84.595,192.86 84.595,187.722C84.595,182.485 84.571,181.487 83.11,181.487C81.649,181.487 81.625,182.485 81.625,187.722ZM88.03,187.673C88.03,193.006 87.688,196.439 83.11,196.439C78.532,196.439 78.191,193.006 78.191,187.673C78.191,181.171 78.922,179.003 83.11,179.003C87.299,179.003 88.03,181.171 88.03,187.673Z" style="fill:rgb(0,99,166);fill-rule:nonzero;"/>
        <path d="M92.852,187.722C92.852,192.86 92.974,193.956 94.337,193.956C95.702,193.956 95.823,192.86 95.823,187.722C95.823,182.485 95.798,181.487 94.337,181.487C92.876,181.487 92.852,182.485 92.852,187.722ZM99.256,187.673C99.256,193.006 98.915,196.439 94.337,196.439C89.759,196.439 89.418,193.006 89.418,187.673C89.418,181.171 90.149,179.003 94.337,179.003C98.526,179.003 99.256,181.171 99.256,187.673Z" style="fill:rgb(0,99,166);fill-rule:nonzero;"/>
        <path d="M100.526,181.852C101.743,181.171 102.937,180.367 103.814,179.223L107.076,179.223L107.076,196.221L103.4,196.221L103.4,183.143C102.523,183.874 101.524,184.507 100.526,185.043L100.526,181.852Z" style="fill:rgb(0,99,166);fill-rule:nonzero;"/>
        <path d="M173.748,161.927L175.919,161.927L175.919,173.043L173.594,173.043L169.058,165.116L169.024,165.116L169.024,173.043L166.858,173.043L166.858,161.927L169.307,161.927L173.719,169.667L173.748,169.667L173.748,161.927Z" style="fill:rgb(35,31,32);fill-rule:nonzero;"/>
        <path d="M182.995,171.369C184.247,171.369 186.013,170.598 186.013,167.485C186.013,164.371 184.247,163.597 182.995,163.597C181.739,163.597 179.975,164.371 179.975,167.485C179.975,170.598 181.739,171.369 182.995,171.369ZM182.995,161.632C184.463,161.632 188.335,162.267 188.335,167.485C188.335,172.702 184.463,173.34 182.995,173.34C181.524,173.34 177.651,172.702 177.651,167.485C177.651,162.267 181.524,161.632 182.995,161.632Z" style="fill:rgb(35,31,32);fill-rule:nonzero;"/>
        <path d="M195.197,166.818C196.401,166.818 196.991,166.399 196.991,165.3C196.991,164.712 196.727,163.847 195.366,163.847L192.47,163.847L192.47,166.818L195.197,166.818ZM190.193,161.927L195.814,161.927C198.772,161.927 199.314,164.108 199.314,165.068C199.314,166.293 198.693,167.346 197.597,167.717C198.509,168.119 199.005,168.461 199.005,170.535C199.005,172.159 199.005,172.564 199.5,172.749L199.5,173.043L196.93,173.043C196.774,172.517 196.685,171.943 196.685,170.796C196.685,169.28 196.591,168.691 194.871,168.691L192.47,168.691L192.47,173.043L190.193,173.043L190.193,161.927Z" style="fill:rgb(35,31,32);fill-rule:nonzero;"/>
        <path d="M199.823,161.927L202.304,161.927C203.729,168.012 203.865,168.788 204.069,170.055L204.101,170.055C204.3,168.894 204.469,167.764 205.649,161.927L208.109,161.927C209.411,168.026 209.517,168.615 209.767,170.055L209.798,170.055C209.985,169.002 210.169,168.043 211.609,161.927L213.964,161.927L210.835,173.043L208.605,173.043C207.458,167.592 207.258,166.511 206.886,164.371L206.856,164.371C206.513,166.511 206.328,167.314 205.138,173.043L202.969,173.043L199.823,161.927Z" style="fill:rgb(35,31,32);fill-rule:nonzero;"/>
        <path d="M223.547,163.893L217.649,163.893L217.649,166.229L223.068,166.229L223.068,168.199L217.649,168.199L217.649,171.078L223.812,171.078L223.812,173.043L215.373,173.043L215.373,161.927L223.547,161.927L223.547,163.893Z" style="fill:rgb(35,31,32);fill-rule:nonzero;"/>
        <path d="M230.919,167.052L235.564,167.052L235.564,173.043L234.016,173.043L233.783,171.652C233.195,172.33 232.342,173.34 230.315,173.34C227.636,173.34 225.206,171.42 225.206,167.516C225.206,164.48 226.893,161.617 230.639,161.632C234.045,161.632 235.394,163.847 235.517,165.381L233.195,165.381C233.195,164.945 232.406,163.552 230.765,163.552C229.107,163.552 227.575,164.697 227.575,167.547C227.575,170.582 229.231,171.369 230.812,171.369C231.322,171.369 233.026,171.17 233.505,168.924L230.919,168.924L230.919,167.052Z" style="fill:rgb(35,31,32);fill-rule:nonzero;"/>
        <rect x="237.562" y="161.927" width="2.324" height="11.116" style="fill:rgb(35,31,32);fill-rule:nonzero;"/>
        <path d="M245.024,168.831L247.861,168.831L246.482,164.434L246.448,164.434L245.024,168.831ZM243.633,173.043L241.186,173.043L245.149,161.927L247.827,161.927L251.744,173.043L249.22,173.043L248.509,170.753L244.406,170.753L243.633,173.043Z" style="fill:rgb(35,31,32);fill-rule:nonzero;"/>
        <path d="M260.015,161.927L262.181,161.927L262.181,173.043L259.859,173.043L255.322,165.116L255.292,165.116L255.292,173.043L253.124,173.043L253.124,161.927L255.567,161.927L259.982,169.667L260.015,169.667L260.015,161.927Z" style="fill:rgb(35,31,32);fill-rule:nonzero;"/>
        <path d="M156.282,186.007L159.116,186.007L157.739,181.611L157.708,181.611L156.282,186.007ZM154.889,190.219L152.442,190.219L156.407,179.101L159.087,179.101L163.006,190.219L160.479,190.219L159.767,187.927L155.665,187.927L154.889,190.219Z" style="fill:rgb(35,31,32);fill-rule:nonzero;"/>
        <path d="M170.962,182.741C170.775,182.075 170.422,180.82 168.5,180.82C167.386,180.82 165.744,181.562 165.744,184.706C165.744,186.703 166.534,188.499 168.5,188.499C169.785,188.499 170.684,187.774 170.962,186.41L173.287,186.41C172.82,188.825 171.243,190.514 168.452,190.514C165.496,190.514 163.374,188.517 163.374,184.676C163.374,180.789 165.62,178.807 168.483,178.807C171.815,178.807 173.16,181.098 173.287,182.741L170.962,182.741Z" style="fill:rgb(35,31,32);fill-rule:nonzero;"/>
        <path d="M182.141,182.741C181.957,182.075 181.6,180.82 179.68,180.82C178.564,180.82 176.924,181.562 176.924,184.706C176.924,186.703 177.713,188.499 179.68,188.499C180.966,188.499 181.864,187.774 182.141,186.41L184.463,186.41C184.001,188.825 182.422,190.514 179.635,190.514C176.675,190.514 174.554,188.517 174.554,184.676C174.554,180.789 176.801,178.807 179.664,178.807C182.995,178.807 184.342,181.098 184.463,182.741L182.141,182.741Z" style="fill:rgb(35,31,32);fill-rule:nonzero;"/>
        <path d="M191.231,183.996C192.44,183.996 193.028,183.578 193.028,182.476C193.028,181.889 192.766,181.023 191.402,181.023L188.506,181.023L188.506,183.996L191.231,183.996ZM186.231,179.101L191.85,179.101C194.81,179.101 195.35,181.284 195.35,182.244C195.35,183.469 194.731,184.519 193.631,184.892C194.545,185.296 195.04,185.635 195.04,187.712C195.04,189.337 195.04,189.74 195.537,189.926L195.537,190.219L192.964,190.219C192.811,189.693 192.718,189.121 192.718,187.975C192.718,186.456 192.624,185.868 190.905,185.868L188.506,185.868L188.506,190.219L186.231,190.219L186.231,179.101Z" style="fill:rgb(35,31,32);fill-rule:nonzero;"/>
        <path d="M205.585,181.067L199.686,181.067L199.686,183.407L205.107,183.407L205.107,185.372L199.686,185.372L199.686,188.253L205.849,188.253L205.849,190.219L197.41,190.219L197.41,179.101L205.585,179.101L205.585,181.067Z" style="fill:rgb(35,31,32);fill-rule:nonzero;"/>
        <path d="M210.014,188.298L212.275,188.298C214.163,188.298 214.8,186.394 214.8,184.568C214.8,181.284 213.236,181.023 212.246,181.023L210.014,181.023L210.014,188.298ZM207.737,179.101L212.648,179.101C216.394,179.101 217.168,182.292 217.168,184.397C217.168,186.781 216.225,190.219 212.555,190.219L207.737,190.219L207.737,179.101Z" style="fill:rgb(35,31,32);fill-rule:nonzero;"/>
        <rect x="218.732" y="179.101" width="2.324" height="11.118" style="fill:rgb(35,31,32);fill-rule:nonzero;"/>
        <path d="M227.945,190.219L225.624,190.219L225.624,181.067L222.263,181.067L222.263,179.101L231.307,179.101L231.307,181.067L227.945,181.067L227.945,190.219Z" style="fill:rgb(35,31,32);fill-rule:nonzero;"/>
        <path d="M234.263,186.007L237.097,186.007L235.718,181.611L235.687,181.611L234.263,186.007ZM232.869,190.219L230.424,190.219L234.386,179.101L237.065,179.101L240.984,190.219L238.458,190.219L237.749,187.927L233.643,187.927L232.869,190.219Z" style="fill:rgb(35,31,32);fill-rule:nonzero;"/>
        <path d="M245.798,190.219L243.476,190.219L243.476,181.067L240.118,181.067L240.118,179.101L249.161,179.101L249.161,181.067L245.798,181.067L245.798,190.219Z" style="fill:rgb(35,31,32);fill-rule:nonzero;"/>
        <rect x="250.351" y="179.101" width="2.323" height="11.118" style="fill:rgb(35,31,32);fill-rule:nonzero;"/>
        <path d="M259.69,188.548C260.941,188.548 262.71,187.774 262.71,184.658C262.71,181.549 260.941,180.774 259.69,180.774C258.433,180.774 256.67,181.549 256.67,184.658C256.67,187.774 258.433,188.548 259.69,188.548ZM259.69,178.807C261.16,178.807 265.03,179.441 265.03,184.658C265.03,189.877 261.16,190.514 259.69,190.514C258.217,190.514 254.347,189.877 254.347,184.658C254.347,179.441 258.217,178.807 259.69,178.807Z" style="fill:rgb(35,31,32);fill-rule:nonzero;"/>
        <path d="M273.672,179.101L275.839,179.101L275.839,190.219L273.519,190.219L268.98,182.292L268.948,182.292L268.948,190.219L266.781,190.219L266.781,179.101L269.227,179.101L273.641,186.846L273.672,186.846L273.672,179.101Z" style="fill:rgb(35,31,32);fill-rule:nonzero;"/>
        <path d="M25.415,61.856C25.456,60.133 24.606,59.677 23.962,59.677C22.655,59.677 21.762,60.299 21.762,63.163C21.762,66.567 22.198,67.791 23.962,67.791C24.356,67.791 25.54,67.376 25.477,65.488L27.262,65.488C27.324,68.434 25.124,69.182 23.962,69.182C21.742,69.182 19.978,68.518 19.978,63.889C19.978,60.818 20.33,58.286 23.962,58.286C26.058,58.286 27.283,59.511 27.179,61.856L25.415,61.856Z" style="fill:rgb(0,99,166);fill-rule:nonzero;"/>
        <path d="M34.142,64.284C34.142,67.21 34.931,67.791 36.259,67.791C37.422,67.791 38.023,66.857 38.086,65.799L39.954,65.799C39.933,68.123 38.501,69.182 36.301,69.182C34.08,69.182 32.316,68.518 32.316,63.889C32.316,60.818 32.669,58.286 36.301,58.286C39.289,58.286 40.036,59.926 40.036,63.392L40.036,64.284L34.142,64.284ZM38.231,62.997C38.231,59.946 37.38,59.573 36.135,59.573C35.056,59.573 34.163,60.092 34.142,62.997L38.231,62.997Z" style="fill:rgb(0,99,166);fill-rule:nonzero;"/>
        <path d="M47.554,60.071L47.595,60.071C48.301,58.473 49.172,58.286 50.833,58.286L50.833,60.05C50.522,60.009 50.231,59.946 49.92,59.946C48.031,59.946 47.554,61.378 47.554,62.79L47.554,68.974L45.852,68.974L45.852,58.494L47.554,58.494L47.554,60.071Z" style="fill:rgb(0,99,166);fill-rule:nonzero;"/>
        <path d="M56.895,58.494L56.895,56.48L58.597,55.713L58.597,58.494L60.88,58.494L60.88,59.78L58.597,59.78L58.597,66.193C58.597,66.857 58.597,67.708 60.154,67.708C60.278,67.708 60.548,67.667 60.921,67.625L60.921,68.933C60.361,68.974 59.801,69.099 59.24,69.099C57.622,69.099 56.895,68.434 56.895,67.231L56.895,59.78L55.173,59.78L55.173,58.494L56.895,58.494Z" style="fill:rgb(0,99,166);fill-rule:nonzero;"/>
        <path d="M66.013,53.99L67.923,53.99L67.923,55.816L66.013,55.816L66.013,53.99ZM67.819,68.974L66.117,68.974L66.117,58.494L67.819,58.494L67.819,68.974Z" style="fill:rgb(0,99,166);fill-rule:nonzero;"/>
        <path d="M75.144,58.494L75.144,56.46C75.144,54.343 76.638,53.928 78.153,53.928C78.506,53.928 78.713,53.949 78.962,53.99L78.962,55.215C77.157,55.09 76.845,55.858 76.845,56.709L76.845,58.494L78.962,58.494L78.962,59.78L76.845,59.78L76.845,68.974L75.144,68.974L75.144,59.78L73.525,59.78L73.525,58.494L75.144,58.494Z" style="fill:rgb(0,99,166);fill-rule:nonzero;"/>
        <path d="M84.547,53.99L86.456,53.99L86.456,55.816L84.547,55.816L84.547,53.99ZM86.353,68.974L84.651,68.974L84.651,58.494L86.353,58.494L86.353,68.974Z" style="fill:rgb(0,99,166);fill-rule:nonzero;"/>
        <path d="M94.208,64.284C94.208,67.21 94.996,67.791 96.325,67.791C97.487,67.791 98.088,66.857 98.151,65.799L100.019,65.799C99.998,68.123 98.566,69.182 96.366,69.182C94.145,69.182 92.381,68.518 92.381,63.889C92.381,60.818 92.734,58.286 96.366,58.286C99.355,58.286 100.102,59.926 100.102,63.392L100.102,64.284L94.208,64.284ZM98.296,62.997C98.296,59.946 97.445,59.573 96.2,59.573C95.121,59.573 94.229,60.092 94.208,62.997L98.296,62.997Z" style="fill:rgb(0,99,166);fill-rule:nonzero;"/>
        <path d="M112.087,53.99L113.789,53.99L113.789,68.974L112.087,68.974L112.087,67.729L112.045,67.729C111.464,68.705 110.738,69.182 109.638,69.182C107.957,69.182 106.255,68.518 106.255,63.911C106.255,61.295 106.338,58.286 109.721,58.286C110.717,58.286 111.444,58.722 112.025,59.552L112.087,59.552L112.087,53.99ZM110.115,59.677C108.289,59.677 108.04,61.129 108.04,63.931C108.04,65.508 108.04,67.791 110.177,67.791C112.087,67.791 112.087,65.426 112.087,63.308C112.087,61.918 112.004,59.677 110.115,59.677Z" style="fill:rgb(0,99,166);fill-rule:nonzero;"/>
    </g>
</svg>
